# xmcd CD database file
#
# Track frame offsets:
#	180
#	7174
#	12778
#	17097
#	22470
#	29662
#	34450
#	40722
#	45291
#	50686
#	59492
#	63474
#	67896
#	72330
#	78464
#	82813
#	88975
#	93469
#	97464
#	106956
#	112675
#	118449
#	123246
#	135697
#	143063
#	145581
#	152722
#	158344
#	162605
#	167926
#	175072
#	179762
#	185966
#	190483
#	195829
#	204611
#	208719
#	213117
#	217524
#	223534
#	227826
#	233888
#	238390
#	242430
#	251881
#	257483
#	263205
#	267943
#	280371
#
# Disc length: 3835 seconds
#
# Revision: 1
# Processed by: cddbd v1.5.1PL0 Copyright (c) Steve Scherf et al.
# Submitted via: CDex 1.51
#
DISCID=db0ef931
DTITLE=Fred Lipsius - Key Jazz Rhythms (Clarinet)
DYEAR=1996
DGENRE=Jazz
TTITLE0=Etude 1 Guide Version
TTITLE1=Etude 2 Guide Version
TTITLE2=Etude 3 Guide Version
TTITLE3=Etude 4 Guide Version
TTITLE4=Etude 5 Guide Version
TTITLE5=Etude 6 Guide Version
TTITLE6=Etude 7 Guide Version
TTITLE7=Etude 8 Guide Version
TTITLE8=Etude 9 Guide Version
TTITLE9=Etude 10 Guide Version
TTITLE10=Etude 11 Guide Version
TTITLE11=Etude 12 Guide Version
TTITLE12=Etude 13 Guide Version
TTITLE13=Etude 14 Guide Version
TTITLE14=Etude 15 Guide Version
TTITLE15=Etude 16 Guide Version
TTITLE16=Etude 17 Guide Version
TTITLE17=Etude 18 Guide Version
TTITLE18=Etude 19 Guide Version
TTITLE19=Etude 20 Guide Version
TTITLE20=Etude 21 Guide Version
TTITLE21=Etude 22 Guide Version
TTITLE22=Etude 23 Guide Version
TTITLE23=Etude 24 Guide Version
TTITLE24=Tuning Note
TTITLE25=Etude 1
TTITLE26=Etude 2
TTITLE27=Etude 3
TTITLE28=Etude 4
TTITLE29=Etude 5
TTITLE30=Etude 6
TTITLE31=Etude 7
TTITLE32=Etude 8
TTITLE33=Etude 9
TTITLE34=Etude 10
TTITLE35=Etude 11
TTITLE36=Etude 12
TTITLE37=Etude 13
TTITLE38=Etude 14
TTITLE39=Etude 15
TTITLE40=Etude 16
TTITLE41=Etude 17
TTITLE42=Etude 18
TTITLE43=Etude 19
TTITLE44=Etude 20
TTITLE45=Etude 21
TTITLE46=Etude 22
TTITLE47=Etude 23
TTITLE48=Etude 24
EXTD=YEAR: 1996
EXTT0=
EXTT1=
EXTT2=
EXTT3=
EXTT4=
EXTT5=
EXTT6=
EXTT7=
EXTT8=
EXTT9=
EXTT10=
EXTT11=
EXTT12=
EXTT13=
EXTT14=
EXTT15=
EXTT16=
EXTT17=
EXTT18=
EXTT19=
EXTT20=
EXTT21=
EXTT22=
EXTT23=
EXTT24=
EXTT25=
EXTT26=
EXTT27=
EXTT28=
EXTT29=
EXTT30=
EXTT31=
EXTT32=
EXTT33=
EXTT34=
EXTT35=
EXTT36=
EXTT37=
EXTT38=
EXTT39=
EXTT40=
EXTT41=
EXTT42=
EXTT43=
EXTT44=
EXTT45=
EXTT46=
EXTT47=
EXTT48=
PLAYORDER=
